<?xml version="1.0"?>
<!DOCTYPE svg PUBLIC "-//W3C//DTD SVG 1.1//EN" "http://www.w3.org/Graphics/SVG/1.1/DTD/svg11.dtd">
<svg version="1.1" width="1200" height="388" onload="init(evt)" viewBox="0 0 1200 388" xmlns="http://www.w3.org/2000/svg" >
    <defs >
        <linearGradient id="background" y1="0" y2="1" x1="0" x2="0" >
            <stop stop-color="#eeeeee" offset="5%" />
            <stop stop-color="#eeeeb0" offset="95%" />
        </linearGradient>
    </defs>
    <style type="text/css" >
	rect[rx]:hover { stroke:black; stroke-width:1; }
	text:hover { stroke:black; stroke-width:1; stroke-opacity:0.35; }
    </style>
    <script type="text/ecmascript" >
	var details;
	function init(evt) {
		details = document.getElementById(&quot;details&quot;).
		    firstChild;
	}
	function s(info) { details.nodeValue = info; }
	function c() { details.nodeValue = &quot; &quot;; }
    </script>
    <rect x="0.0" y="0.0" width="1200.0" height="388.0" fill="url(#background)" />
    <text text-anchor="middle" x="600" y="24" font-size="17" font-family="Verdana" fill="rgb(0, 0, 0)" >Flame Graph</text>
    <text text-anchor="left" x="10" y="48" font-size="12" font-family="Verdana" fill="rgb(0, 0, 0)" >Function:</text>
    <text text-anchor="left" x="70" y="48" font-size="12" font-family="Verdana" fill="rgb(0, 0, 0)" id="details" > </text>
    <rect x="10.0" y="323.0" width="11.9" height="15.0" fill="rgb(207,147,143)" rx="2" ry="2" onmouseover="s(&quot;0x12 (1 samples, 1.01%)&quot;)" onmouseout="c()" />
    <rect x="21.9" y="323.0" width="11.9" height="15.0" fill="rgb(207,147,143)" rx="2" ry="2" onmouseover="s(&quot;0x1318 (1 samples, 1.01%)&quot;)" onmouseout="c()" />
    <rect x="33.8" y="323.0" width="11.9" height="15.0" fill="rgb(207,147,143)" rx="2" ry="2" onmouseover="s(&quot;0x162 (1 samples, 1.01%)&quot;)" onmouseout="c()" />
    <rect x="45.8" y="323.0" width="11.9" height="15.0" fill="rgb(207,147,143)" rx="2" ry="2" onmouseover="s(&quot;0x1b40 (1 samples, 1.01%)&quot;)" onmouseout="c()" />
    <rect x="57.7" y="323.0" width="23.8" height="15.0" fill="rgb(207,146,142)" rx="2" ry="2" onmouseover="s(&quot;0x1dba000 (2 samples, 2.02%)&quot;)" onmouseout="c()" />
    <rect x="93.4" y="67.0" width="11.9" height="15.0" fill="rgb(255,255,89)" rx="2" ry="2" onmouseover="s(&quot;0x1046dbc7a (1 samples, 1.01%)&quot;)" onmouseout="c()" />
    <rect x="93.4" y="83.0" width="11.9" height="15.0" fill="rgb(252,242,88)" rx="2" ry="2" onmouseover="s(&quot;0x1046e4d8a (1 samples, 1.01%)&quot;)" onmouseout="c()" />
    <rect x="93.4" y="99.0" width="11.9" height="15.0" fill="rgb(249,230,87)" rx="2" ry="2" onmouseover="s(&quot;0x1046decf1 (1 samples, 1.01%)&quot;)" onmouseout="c()" />
    <rect x="93.4" y="115.0" width="11.9" height="15.0" fill="rgb(246,218,86)" rx="2" ry="2" onmouseover="s(&quot;0x1046d9898 (1 samples, 1.01%)&quot;)" onmouseout="c()" />
    <rect x="93.4" y="131.0" width="11.9" height="15.0" fill="rgb(243,206,85)" rx="2" ry="2" onmouseover="s(&quot;0x1046e52f2 (1 samples, 1.01%)&quot;)" onmouseout="c()" />
    <rect x="93.4" y="147.0" width="11.9" height="15.0" fill="rgb(240,194,84)" rx="2" ry="2" onmouseover="s(&quot;0x1046e5551 (1 samples, 1.01%)&quot;)" onmouseout="c()" />
    <rect x="93.4" y="163.0" width="11.9" height="15.0" fill="rgb(237,183,83)" rx="2" ry="2" onmouseover="s(&quot;0x1046e5636 (1 samples, 1.01%)&quot;)" onmouseout="c()" />
    <rect x="93.4" y="179.0" width="11.9" height="15.0" fill="rgb(234,183,109)" rx="2" ry="2" onmouseover="s(&quot;0x1046e5d22 (1 samples, 1.01%)&quot;)" onmouseout="c()" />
    <rect x="93.4" y="195.0" width="11.9" height="15.0" fill="rgb(231,179,121)" rx="2" ry="2" onmouseover="s(&quot;0x1046e56dc (1 samples, 1.01%)&quot;)" onmouseout="c()" />
    <rect x="93.4" y="211.0" width="11.9" height="15.0" fill="rgb(228,171,120)" rx="2" ry="2" onmouseover="s(&quot;0x1046db122 (1 samples, 1.01%)&quot;)" onmouseout="c()" />
    <rect x="93.4" y="227.0" width="11.9" height="15.0" fill="rgb(225,162,118)" rx="2" ry="2" onmouseover="s(&quot;0x1046db0f7 (1 samples, 1.01%)&quot;)" onmouseout="c()" />
    <rect x="93.4" y="243.0" width="11.9" height="15.0" fill="rgb(222,154,117)" rx="2" ry="2" onmouseover="s(&quot;0x1046d9dc4 (1 samples, 1.01%)&quot;)" onmouseout="c()" />
    <rect x="93.4" y="259.0" width="11.9" height="15.0" fill="rgb(219,146,115)" rx="2" ry="2" onmouseover="s(&quot;0x1046cf32a (1 samples, 1.01%)&quot;)" onmouseout="c()" />
    <rect x="93.4" y="275.0" width="11.9" height="15.0" fill="rgb(216,138,113)" rx="2" ry="2" onmouseover="s(&quot;0x1046d0668 (1 samples, 1.01%)&quot;)" onmouseout="c()" />
    <rect x="93.4" y="291.0" width="11.9" height="15.0" fill="rgb(213,130,112)" rx="2" ry="2" onmouseover="s(&quot;0x1046cb249 (1 samples, 1.01%)&quot;)" onmouseout="c()" />
    <rect x="93.4" y="307.0" width="11.9" height="15.0" fill="rgb(210,122,110)" rx="2" ry="2" onmouseover="s(&quot;0x1046cb036 (1 samples, 1.01%)&quot;)" onmouseout="c()" />
    <rect x="105.4" y="195.0" width="11.9" height="15.0" fill="rgb(231,179,121)" rx="2" ry="2" onmouseover="s(&quot;0x105b2e7c8 (1 samples, 1.01%)&quot;)" onmouseout="c()" />
    <rect x="105.4" y="211.0" width="11.9" height="15.0" fill="rgb(228,171,120)" rx="2" ry="2" onmouseover="s(&quot;0x105b24f67 (1 samples, 1.01%)&quot;)" onmouseout="c()" />
    <rect x="105.4" y="227.0" width="11.9" height="15.0" fill="rgb(225,162,118)" rx="2" ry="2" onmouseover="s(&quot;0x105b24f43 (1 samples, 1.01%)&quot;)" onmouseout="c()" />
    <rect x="105.4" y="243.0" width="11.9" height="15.0" fill="rgb(222,154,117)" rx="2" ry="2" onmouseover="s(&quot;0x105b23d95 (1 samples, 1.01%)&quot;)" onmouseout="c()" />
    <rect x="105.4" y="259.0" width="11.9" height="15.0" fill="rgb(219,146,115)" rx="2" ry="2" onmouseover="s(&quot;0x105b1932a (1 samples, 1.01%)&quot;)" onmouseout="c()" />
    <rect x="105.4" y="275.0" width="11.9" height="15.0" fill="rgb(216,138,113)" rx="2" ry="2" onmouseover="s(&quot;0x105b1a668 (1 samples, 1.01%)&quot;)" onmouseout="c()" />
    <rect x="105.4" y="291.0" width="11.9" height="15.0" fill="rgb(213,130,112)" rx="2" ry="2" onmouseover="s(&quot;0x105b15249 (1 samples, 1.01%)&quot;)" onmouseout="c()" />
    <rect x="105.4" y="307.0" width="11.9" height="15.0" fill="rgb(210,122,110)" rx="2" ry="2" onmouseover="s(&quot;0x105b15036 (1 samples, 1.01%)&quot;)" onmouseout="c()" />
    <rect x="117.3" y="67.0" width="11.9" height="15.0" fill="rgb(255,255,89)" rx="2" ry="2" onmouseover="s(&quot;0x10bd63cef (1 samples, 1.01%)&quot;)" onmouseout="c()" />
    <rect x="117.3" y="83.0" width="11.9" height="15.0" fill="rgb(252,242,88)" rx="2" ry="2" onmouseover="s(&quot;0x10bd6cd8a (1 samples, 1.01%)&quot;)" onmouseout="c()" />
    <rect x="117.3" y="99.0" width="11.9" height="15.0" fill="rgb(249,230,87)" rx="2" ry="2" onmouseover="s(&quot;0x10bd66cf1 (1 samples, 1.01%)&quot;)" onmouseout="c()" />
    <rect x="117.3" y="115.0" width="11.9" height="15.0" fill="rgb(246,218,86)" rx="2" ry="2" onmouseover="s(&quot;0x10bd61898 (1 samples, 1.01%)&quot;)" onmouseout="c()" />
    <rect x="117.3" y="131.0" width="11.9" height="15.0" fill="rgb(243,206,85)" rx="2" ry="2" onmouseover="s(&quot;0x10bd6d2f2 (1 samples, 1.01%)&quot;)" onmouseout="c()" />
    <rect x="117.3" y="147.0" width="11.9" height="15.0" fill="rgb(240,194,84)" rx="2" ry="2" onmouseover="s(&quot;0x10bd6d551 (1 samples, 1.01%)&quot;)" onmouseout="c()" />
    <rect x="117.3" y="163.0" width="11.9" height="15.0" fill="rgb(237,183,83)" rx="2" ry="2" onmouseover="s(&quot;0x10bd6d636 (1 samples, 1.01%)&quot;)" onmouseout="c()" />
    <rect x="117.3" y="179.0" width="11.9" height="15.0" fill="rgb(234,183,109)" rx="2" ry="2" onmouseover="s(&quot;0x10bd6dd22 (1 samples, 1.01%)&quot;)" onmouseout="c()" />
    <rect x="117.3" y="195.0" width="11.9" height="15.0" fill="rgb(231,179,121)" rx="2" ry="2" onmouseover="s(&quot;0x10bd6d6dc (1 samples, 1.01%)&quot;)" onmouseout="c()" />
    <rect x="117.3" y="211.0" width="11.9" height="15.0" fill="rgb(228,171,120)" rx="2" ry="2" onmouseover="s(&quot;0x10bd63122 (1 samples, 1.01%)&quot;)" onmouseout="c()" />
    <rect x="117.3" y="227.0" width="11.9" height="15.0" fill="rgb(225,162,118)" rx="2" ry="2" onmouseover="s(&quot;0x10bd630f7 (1 samples, 1.01%)&quot;)" onmouseout="c()" />
    <rect x="117.3" y="243.0" width="11.9" height="15.0" fill="rgb(222,154,117)" rx="2" ry="2" onmouseover="s(&quot;0x10bd61dc4 (1 samples, 1.01%)&quot;)" onmouseout="c()" />
    <rect x="117.3" y="259.0" width="11.9" height="15.0" fill="rgb(219,146,115)" rx="2" ry="2" onmouseover="s(&quot;0x10bd5732a (1 samples, 1.01%)&quot;)" onmouseout="c()" />
    <rect x="117.3" y="275.0" width="11.9" height="15.0" fill="rgb(216,138,113)" rx="2" ry="2" onmouseover="s(&quot;0x10bd58668 (1 samples, 1.01%)&quot;)" onmouseout="c()" />
    <rect x="117.3" y="291.0" width="11.9" height="15.0" fill="rgb(213,130,112)" rx="2" ry="2" onmouseover="s(&quot;0x10bd53249 (1 samples, 1.01%)&quot;)" onmouseout="c()" />
    <rect x="117.3" y="307.0" width="11.9" height="15.0" fill="rgb(210,122,110)" rx="2" ry="2" onmouseover="s(&quot;0x10bd53036 (1 samples, 1.01%)&quot;)" onmouseout="c()" />
    <rect x="129.2" y="179.0" width="11.9" height="15.0" fill="rgb(234,183,109)" rx="2" ry="2" onmouseover="s(&quot;0x10d0e8979 (1 samples, 1.01%)&quot;)" onmouseout="c()" />
    <rect x="129.2" y="195.0" width="11.9" height="15.0" fill="rgb(231,179,121)" rx="2" ry="2" onmouseover="s(&quot;0x10d0def67 (1 samples, 1.01%)&quot;)" onmouseout="c()" />
    <rect x="129.2" y="211.0" width="11.9" height="15.0" fill="rgb(228,171,120)" rx="2" ry="2" onmouseover="s(&quot;0x10d0def43 (1 samples, 1.01%)&quot;)" onmouseout="c()" />
    <rect x="129.2" y="227.0" width="11.9" height="15.0" fill="rgb(225,162,118)" rx="2" ry="2" onmouseover="s(&quot;0x10d0def43 (1 samples, 1.01%)&quot;)" onmouseout="c()" />
    <rect x="129.2" y="243.0" width="11.9" height="15.0" fill="rgb(222,154,117)" rx="2" ry="2" onmouseover="s(&quot;0x10d0ddd95 (1 samples, 1.01%)&quot;)" onmouseout="c()" />
    <rect x="129.2" y="259.0" width="11.9" height="15.0" fill="rgb(219,146,115)" rx="2" ry="2" onmouseover="s(&quot;0x10d0d332a (1 samples, 1.01%)&quot;)" onmouseout="c()" />
    <rect x="129.2" y="275.0" width="11.9" height="15.0" fill="rgb(216,138,113)" rx="2" ry="2" onmouseover="s(&quot;0x10d0d4668 (1 samples, 1.01%)&quot;)" onmouseout="c()" />
    <rect x="129.2" y="291.0" width="11.9" height="15.0" fill="rgb(213,130,112)" rx="2" ry="2" onmouseover="s(&quot;0x10d0cf249 (1 samples, 1.01%)&quot;)" onmouseout="c()" />
    <rect x="129.2" y="307.0" width="11.9" height="15.0" fill="rgb(210,122,110)" rx="2" ry="2" onmouseover="s(&quot;0x10d0cf036 (1 samples, 1.01%)&quot;)" onmouseout="c()" />
    <rect x="81.5" y="323.0" width="59.6" height="15.0" fill="rgb(207,142,138)" rx="2" ry="2" onmouseover="s(&quot;0x2 (5 samples, 5.05%)&quot;)" onmouseout="c()" />
    <text text-anchor="left" x="84.51515151515152" y="333.5" font-size="12" font-family="Verdana" fill="rgb(0, 0, 0)" onmouseover="s(&quot;0x2 (5 samples, 5.05%)&quot;)" onmouseout="c()" >0x2</text>
    <rect x="141.1" y="323.0" width="11.9" height="15.0" fill="rgb(207,147,143)" rx="2" ry="2" onmouseover="s(&quot;0x2013e00 (1 samples, 1.01%)&quot;)" onmouseout="c()" />
    <rect x="153.0" y="323.0" width="11.9" height="15.0" fill="rgb(207,147,143)" rx="2" ry="2" onmouseover="s(&quot;0x250 (1 samples, 1.01%)&quot;)" onmouseout="c()" />
    <rect x="164.9" y="323.0" width="11.9" height="15.0" fill="rgb(207,147,143)" rx="2" ry="2" onmouseover="s(&quot;0x2a80 (1 samples, 1.01%)&quot;)" onmouseout="c()" />
    <rect x="176.9" y="323.0" width="11.9" height="15.0" fill="rgb(207,147,143)" rx="2" ry="2" onmouseover="s(&quot;0x2c0 (1 samples, 1.01%)&quot;)" onmouseout="c()" />
    <rect x="188.8" y="323.0" width="11.9" height="15.0" fill="rgb(207,147,143)" rx="2" ry="2" onmouseover="s(&quot;0x2dd2d48 (1 samples, 1.01%)&quot;)" onmouseout="c()" />
    <rect x="200.7" y="323.0" width="11.9" height="15.0" fill="rgb(207,147,143)" rx="2" ry="2" onmouseover="s(&quot;0x3000005 (1 samples, 1.01%)&quot;)" onmouseout="c()" />
    <rect x="212.6" y="323.0" width="11.9" height="15.0" fill="rgb(207,147,143)" rx="2" ry="2" onmouseover="s(&quot;0x36bc000 (1 samples, 1.01%)&quot;)" onmouseout="c()" />
    <rect x="224.5" y="323.0" width="11.9" height="15.0" fill="rgb(207,147,143)" rx="2" ry="2" onmouseover="s(&quot;0x36c0400 (1 samples, 1.01%)&quot;)" onmouseout="c()" />
    <rect x="236.5" y="323.0" width="11.9" height="15.0" fill="rgb(207,147,143)" rx="2" ry="2" onmouseover="s(&quot;0x36e (1 samples, 1.01%)&quot;)" onmouseout="c()" />
    <rect x="248.4" y="323.0" width="11.9" height="15.0" fill="rgb(207,147,143)" rx="2" ry="2" onmouseover="s(&quot;0x370a750 (1 samples, 1.01%)&quot;)" onmouseout="c()" />
    <rect x="260.3" y="323.0" width="11.9" height="15.0" fill="rgb(207,147,143)" rx="2" ry="2" onmouseover="s(&quot;0x370fd00 (1 samples, 1.01%)&quot;)" onmouseout="c()" />
    <rect x="272.2" y="323.0" width="11.9" height="15.0" fill="rgb(207,147,143)" rx="2" ry="2" onmouseover="s(&quot;0x3809918 (1 samples, 1.01%)&quot;)" onmouseout="c()" />
    <rect x="284.1" y="323.0" width="11.9" height="15.0" fill="rgb(207,147,143)" rx="2" ry="2" onmouseover="s(&quot;0x380e010 (1 samples, 1.01%)&quot;)" onmouseout="c()" />
    <rect x="296.1" y="323.0" width="11.9" height="15.0" fill="rgb(207,147,143)" rx="2" ry="2" onmouseover="s(&quot;0x382ee58 (1 samples, 1.01%)&quot;)" onmouseout="c()" />
    <rect x="308.0" y="323.0" width="11.9" height="15.0" fill="rgb(207,147,143)" rx="2" ry="2" onmouseover="s(&quot;0x38318d8 (1 samples, 1.01%)&quot;)" onmouseout="c()" />
    <rect x="319.9" y="323.0" width="11.9" height="15.0" fill="rgb(207,147,143)" rx="2" ry="2" onmouseover="s(&quot;0x383f060 (1 samples, 1.01%)&quot;)" onmouseout="c()" />
    <rect x="331.8" y="323.0" width="11.9" height="15.0" fill="rgb(207,147,143)" rx="2" ry="2" onmouseover="s(&quot;0x3849b58 (1 samples, 1.01%)&quot;)" onmouseout="c()" />
    <rect x="343.7" y="323.0" width="11.9" height="15.0" fill="rgb(207,147,143)" rx="2" ry="2" onmouseover="s(&quot;0x385fbb0 (1 samples, 1.01%)&quot;)" onmouseout="c()" />
    <rect x="355.7" y="323.0" width="11.9" height="15.0" fill="rgb(207,147,143)" rx="2" ry="2" onmouseover="s(&quot;0x3864c88 (1 samples, 1.01%)&quot;)" onmouseout="c()" />
    <rect x="367.6" y="323.0" width="11.9" height="15.0" fill="rgb(207,147,143)" rx="2" ry="2" onmouseover="s(&quot;0x387a628 (1 samples, 1.01%)&quot;)" onmouseout="c()" />
    <rect x="379.5" y="323.0" width="11.9" height="15.0" fill="rgb(207,147,143)" rx="2" ry="2" onmouseover="s(&quot;0x38bccb8 (1 samples, 1.01%)&quot;)" onmouseout="c()" />
    <rect x="391.4" y="323.0" width="11.9" height="15.0" fill="rgb(207,147,143)" rx="2" ry="2" onmouseover="s(&quot;0x394 (1 samples, 1.01%)&quot;)" onmouseout="c()" />
    <rect x="403.3" y="323.0" width="11.9" height="15.0" fill="rgb(207,147,143)" rx="2" ry="2" onmouseover="s(&quot;0x3e0add0 (1 samples, 1.01%)&quot;)" onmouseout="c()" />
    <rect x="415.3" y="323.0" width="11.9" height="15.0" fill="rgb(207,147,143)" rx="2" ry="2" onmouseover="s(&quot;0x4 (1 samples, 1.01%)&quot;)" onmouseout="c()" />
    <rect x="427.2" y="323.0" width="11.9" height="15.0" fill="rgb(207,147,143)" rx="2" ry="2" onmouseover="s(&quot;0x4005860 (1 samples, 1.01%)&quot;)" onmouseout="c()" />
    <rect x="439.1" y="323.0" width="11.9" height="15.0" fill="rgb(207,147,143)" rx="2" ry="2" onmouseover="s(&quot;0x4058058 (1 samples, 1.01%)&quot;)" onmouseout="c()" />
    <rect x="451.0" y="323.0" width="11.9" height="15.0" fill="rgb(207,147,143)" rx="2" ry="2" onmouseover="s(&quot;0x4058588 (1 samples, 1.01%)&quot;)" onmouseout="c()" />
    <rect x="462.9" y="323.0" width="11.9" height="15.0" fill="rgb(207,147,143)" rx="2" ry="2" onmouseover="s(&quot;0x4070330 (1 samples, 1.01%)&quot;)" onmouseout="c()" />
    <rect x="474.8" y="323.0" width="11.9" height="15.0" fill="rgb(207,147,143)" rx="2" ry="2" onmouseover="s(&quot;0x42 (1 samples, 1.01%)&quot;)" onmouseout="c()" />
    <rect x="486.8" y="323.0" width="11.9" height="15.0" fill="rgb(207,147,143)" rx="2" ry="2" onmouseover="s(&quot;0x4212d90 (1 samples, 1.01%)&quot;)" onmouseout="c()" />
    <rect x="498.7" y="323.0" width="11.9" height="15.0" fill="rgb(207,147,143)" rx="2" ry="2" onmouseover="s(&quot;0x4341688 (1 samples, 1.01%)&quot;)" onmouseout="c()" />
    <rect x="510.6" y="323.0" width="11.9" height="15.0" fill="rgb(207,147,143)" rx="2" ry="2" onmouseover="s(&quot;0x44cd2e0 (1 samples, 1.01%)&quot;)" onmouseout="c()" />
    <rect x="522.5" y="323.0" width="11.9" height="15.0" fill="rgb(207,147,143)" rx="2" ry="2" onmouseover="s(&quot;0x468a000 (1 samples, 1.01%)&quot;)" onmouseout="c()" />
    <rect x="534.4" y="323.0" width="11.9" height="15.0" fill="rgb(207,147,143)" rx="2" ry="2" onmouseover="s(&quot;0x4813400 (1 samples, 1.01%)&quot;)" onmouseout="c()" />
    <rect x="546.4" y="323.0" width="11.9" height="15.0" fill="rgb(207,147,143)" rx="2" ry="2" onmouseover="s(&quot;0x482f8a0 (1 samples, 1.01%)&quot;)" onmouseout="c()" />
    <rect x="558.3" y="323.0" width="11.9" height="15.0" fill="rgb(207,147,143)" rx="2" ry="2" onmouseover="s(&quot;0x4a (1 samples, 1.01%)&quot;)" onmouseout="c()" />
    <rect x="570.2" y="323.0" width="11.9" height="15.0" fill="rgb(207,147,143)" rx="2" ry="2" onmouseover="s(&quot;0x4b (1 samples, 1.01%)&quot;)" onmouseout="c()" />
    <rect x="582.1" y="323.0" width="11.9" height="15.0" fill="rgb(207,147,143)" rx="2" ry="2" onmouseover="s(&quot;0x5034d70 (1 samples, 1.01%)&quot;)" onmouseout="c()" />
    <rect x="594.0" y="323.0" width="11.9" height="15.0" fill="rgb(207,147,143)" rx="2" ry="2" onmouseover="s(&quot;0x506f878 (1 samples, 1.01%)&quot;)" onmouseout="c()" />
    <rect x="606.0" y="323.0" width="11.9" height="15.0" fill="rgb(207,147,143)" rx="2" ry="2" onmouseover="s(&quot;0x533f800 (1 samples, 1.01%)&quot;)" onmouseout="c()" />
    <rect x="617.9" y="323.0" width="11.9" height="15.0" fill="rgb(207,147,143)" rx="2" ry="2" onmouseover="s(&quot;0x54c00000 (1 samples, 1.01%)&quot;)" onmouseout="c()" />
    <rect x="629.8" y="323.0" width="11.9" height="15.0" fill="rgb(207,147,143)" rx="2" ry="2" onmouseover="s(&quot;0x57 (1 samples, 1.01%)&quot;)" onmouseout="c()" />
    <rect x="641.7" y="323.0" width="11.9" height="15.0" fill="rgb(207,147,143)" rx="2" ry="2" onmouseover="s(&quot;0x5811c60 (1 samples, 1.01%)&quot;)" onmouseout="c()" />
    <rect x="653.6" y="323.0" width="11.9" height="15.0" fill="rgb(207,147,143)" rx="2" ry="2" onmouseover="s(&quot;0x58273d8 (1 samples, 1.01%)&quot;)" onmouseout="c()" />
    <rect x="665.6" y="323.0" width="23.8" height="15.0" fill="rgb(207,146,142)" rx="2" ry="2" onmouseover="s(&quot;0x5bb698 (2 samples, 2.02%)&quot;)" onmouseout="c()" />
    <rect x="689.4" y="323.0" width="11.9" height="15.0" fill="rgb(207,147,143)" rx="2" ry="2" onmouseover="s(&quot;0x5fbfc337 (1 samples, 1.01%)&quot;)" onmouseout="c()" />
    <rect x="701.3" y="323.0" width="11.9" height="15.0" fill="rgb(207,147,143)" rx="2" ry="2" onmouseover="s(&quot;0x5fbfc560 (1 samples, 1.01%)&quot;)" onmouseout="c()" />
    <rect x="713.2" y="323.0" width="11.9" height="15.0" fill="rgb(207,147,143)" rx="2" ry="2" onmouseover="s(&quot;0x5fbfc800 (1 samples, 1.01%)&quot;)" onmouseout="c()" />
    <rect x="725.2" y="323.0" width="11.9" height="15.0" fill="rgb(207,147,143)" rx="2" ry="2" onmouseover="s(&quot;0x5fbfca00 (1 samples, 1.01%)&quot;)" onmouseout="c()" />
    <rect x="737.1" y="323.0" width="11.9" height="15.0" fill="rgb(207,147,143)" rx="2" ry="2" onmouseover="s(&quot;0x5fbfcd39 (1 samples, 1.01%)&quot;)" onmouseout="c()" />
    <rect x="749.0" y="323.0" width="11.9" height="15.0" fill="rgb(207,147,143)" rx="2" ry="2" onmouseover="s(&quot;0x5fbfcfc8 (1 samples, 1.01%)&quot;)" onmouseout="c()" />
    <rect x="760.9" y="323.0" width="11.9" height="15.0" fill="rgb(207,147,143)" rx="2" ry="2" onmouseover="s(&quot;0x5fbfd0e7 (1 samples, 1.01%)&quot;)" onmouseout="c()" />
    <rect x="772.8" y="323.0" width="11.9" height="15.0" fill="rgb(207,147,143)" rx="2" ry="2" onmouseover="s(&quot;0x5fbfd300 (1 samples, 1.01%)&quot;)" onmouseout="c()" />
    <rect x="784.7" y="323.0" width="11.9" height="15.0" fill="rgb(207,147,143)" rx="2" ry="2" onmouseover="s(&quot;0x5fbfd4e8 (1 samples, 1.01%)&quot;)" onmouseout="c()" />
    <rect x="796.7" y="323.0" width="11.9" height="15.0" fill="rgb(207,147,143)" rx="2" ry="2" onmouseover="s(&quot;0x5fbfd600 (1 samples, 1.01%)&quot;)" onmouseout="c()" />
    <rect x="808.6" y="323.0" width="11.9" height="15.0" fill="rgb(207,147,143)" rx="2" ry="2" onmouseover="s(&quot;0x5fbfd7e0 (1 samples, 1.01%)&quot;)" onmouseout="c()" />
    <rect x="820.5" y="323.0" width="11.9" height="15.0" fill="rgb(207,147,143)" rx="2" ry="2" onmouseover="s(&quot;0x5fbfd898 (1 samples, 1.01%)&quot;)" onmouseout="c()" />
    <rect x="832.4" y="323.0" width="11.9" height="15.0" fill="rgb(207,147,143)" rx="2" ry="2" onmouseover="s(&quot;0x5fbfd9f8 (1 samples, 1.01%)&quot;)" onmouseout="c()" />
    <rect x="844.3" y="323.0" width="11.9" height="15.0" fill="rgb(207,147,143)" rx="2" ry="2" onmouseover="s(&quot;0x5fbfdac8 (1 samples, 1.01%)&quot;)" onmouseout="c()" />
    <rect x="856.3" y="323.0" width="11.9" height="15.0" fill="rgb(207,147,143)" rx="2" ry="2" onmouseover="s(&quot;0x5fbfdae8 (1 samples, 1.01%)&quot;)" onmouseout="c()" />
    <rect x="868.2" y="323.0" width="11.9" height="15.0" fill="rgb(207,147,143)" rx="2" ry="2" onmouseover="s(&quot;0x5fbfdc00 (1 samples, 1.01%)&quot;)" onmouseout="c()" />
    <rect x="880.1" y="323.0" width="11.9" height="15.0" fill="rgb(207,147,143)" rx="2" ry="2" onmouseover="s(&quot;0x5fbfdd08 (1 samples, 1.01%)&quot;)" onmouseout="c()" />
    <rect x="892.0" y="323.0" width="11.9" height="15.0" fill="rgb(207,147,143)" rx="2" ry="2" onmouseover="s(&quot;0x5fbfdd10 (1 samples, 1.01%)&quot;)" onmouseout="c()" />
    <rect x="903.9" y="323.0" width="11.9" height="15.0" fill="rgb(207,147,143)" rx="2" ry="2" onmouseover="s(&quot;0x5fbfdd38 (1 samples, 1.01%)&quot;)" onmouseout="c()" />
    <rect x="915.9" y="323.0" width="11.9" height="15.0" fill="rgb(207,147,143)" rx="2" ry="2" onmouseover="s(&quot;0x5fbfdec8 (1 samples, 1.01%)&quot;)" onmouseout="c()" />
    <rect x="927.8" y="323.0" width="11.9" height="15.0" fill="rgb(207,147,143)" rx="2" ry="2" onmouseover="s(&quot;0x5fbfdf08 (1 samples, 1.01%)&quot;)" onmouseout="c()" />
    <rect x="939.7" y="323.0" width="23.8" height="15.0" fill="rgb(207,146,142)" rx="2" ry="2" onmouseover="s(&quot;0x5fbfdf58 (2 samples, 2.02%)&quot;)" onmouseout="c()" />
    <rect x="963.5" y="323.0" width="11.9" height="15.0" fill="rgb(207,147,143)" rx="2" ry="2" onmouseover="s(&quot;0x5fbfe040 (1 samples, 1.01%)&quot;)" onmouseout="c()" />
    <rect x="975.5" y="323.0" width="11.9" height="15.0" fill="rgb(207,147,143)" rx="2" ry="2" onmouseover="s(&quot;0x5fbfe5c0 (1 samples, 1.01%)&quot;)" onmouseout="c()" />
    <rect x="987.4" y="323.0" width="11.9" height="15.0" fill="rgb(207,147,143)" rx="2" ry="2" onmouseover="s(&quot;0x5fbfeb18 (1 samples, 1.01%)&quot;)" onmouseout="c()" />
    <rect x="999.3" y="323.0" width="11.9" height="15.0" fill="rgb(207,147,143)" rx="2" ry="2" onmouseover="s(&quot;0x60 (1 samples, 1.01%)&quot;)" onmouseout="c()" />
    <rect x="1011.2" y="323.0" width="11.9" height="15.0" fill="rgb(207,147,143)" rx="2" ry="2" onmouseover="s(&quot;0x60328a0 (1 samples, 1.01%)&quot;)" onmouseout="c()" />
    <rect x="1023.1" y="323.0" width="11.9" height="15.0" fill="rgb(207,147,143)" rx="2" ry="2" onmouseover="s(&quot;0x681822f1 (1 samples, 1.01%)&quot;)" onmouseout="c()" />
    <rect x="1035.1" y="323.0" width="11.9" height="15.0" fill="rgb(207,147,143)" rx="2" ry="2" onmouseover="s(&quot;0x6c (1 samples, 1.01%)&quot;)" onmouseout="c()" />
    <rect x="1047.0" y="323.0" width="11.9" height="15.0" fill="rgb(207,147,143)" rx="2" ry="2" onmouseover="s(&quot;0x8e1854 (1 samples, 1.01%)&quot;)" onmouseout="c()" />
    <rect x="1058.9" y="323.0" width="23.8" height="15.0" fill="rgb(207,146,142)" rx="2" ry="2" onmouseover="s(&quot;0x985022f1 (2 samples, 2.02%)&quot;)" onmouseout="c()" />
    <rect x="1082.7" y="323.0" width="35.8" height="15.0" fill="rgb(207,144,141)" rx="2" ry="2" onmouseover="s(&quot;0xa90 (3 samples, 3.03%)&quot;)" onmouseout="c()" />
    <rect x="1118.5" y="323.0" width="11.9" height="15.0" fill="rgb(207,147,143)" rx="2" ry="2" onmouseover="s(&quot;0xb0e822f1 (1 samples, 1.01%)&quot;)" onmouseout="c()" />
    <rect x="1130.4" y="323.0" width="11.9" height="15.0" fill="rgb(207,147,143)" rx="2" ry="2" onmouseover="s(&quot;0xc563848 (1 samples, 1.01%)&quot;)" onmouseout="c()" />
    <rect x="1142.3" y="323.0" width="11.9" height="15.0" fill="rgb(207,147,143)" rx="2" ry="2" onmouseover="s(&quot;0xc666d48 (1 samples, 1.01%)&quot;)" onmouseout="c()" />
    <rect x="1154.2" y="323.0" width="11.9" height="15.0" fill="rgb(207,147,143)" rx="2" ry="2" onmouseover="s(&quot;0xdb700000 (1 samples, 1.01%)&quot;)" onmouseout="c()" />
    <rect x="1166.2" y="323.0" width="23.8" height="15.0" fill="rgb(207,146,142)" rx="2" ry="2" onmouseover="s(&quot;0xdf6dc8 (2 samples, 2.02%)&quot;)" onmouseout="c()" />
    <rect x="10.0" y="339.0" width="1180.0" height="15.0" fill="rgb(204,0,0)" rx="2" ry="2" onmouseover="s(&quot;all samples (99 samples, 100%)&quot;)" onmouseout="c()" />
    <text text-anchor="left" x="13" y="349.5" font-size="12" font-family="Verdana" fill="rgb(0, 0, 0)" onmouseover="s(&quot;all samples (99 samples, 100%)&quot;)" onmouseout="c()" ></text>
</svg>
