<?xml version="1.0"?>
<!DOCTYPE svg PUBLIC "-//W3C//DTD SVG 1.1//EN" "http://www.w3.org/Graphics/SVG/1.1/DTD/svg11.dtd">
<svg version="1.1" width="1200" height="212" onload="init(evt)" viewBox="0 0 1200 212" xmlns="http://www.w3.org/2000/svg" >
    <defs >
        <linearGradient id="background" y1="0" y2="1" x1="0" x2="0" >
            <stop stop-color="#eeeeee" offset="5%" />
            <stop stop-color="#eeeeb0" offset="95%" />
        </linearGradient>
    </defs>
    <style type="text/css" >
	rect[rx]:hover { stroke:black; stroke-width:1; }
	text:hover { stroke:black; stroke-width:1; stroke-opacity:0.35; }
    </style>
    <script type="text/ecmascript" >
	var details;
	function init(evt) {
		details = document.getElementById(&quot;details&quot;).
		    firstChild;
	}
	function s(info) { details.nodeValue = info; }
	function c() { details.nodeValue = &quot; &quot;; }
    </script>
    <rect x="0.0" y="0.0" width="1200.0" height="212.0" fill="url(#background)" />
    <text text-anchor="middle" x="600" y="24" font-size="17" font-family="Verdana" fill="rgb(0, 0, 0)" >Flame Graph</text>
    <text text-anchor="left" x="10" y="48" font-size="12" font-family="Verdana" fill="rgb(0, 0, 0)" >Function:</text>
    <text text-anchor="left" x="70" y="48" font-size="12" font-family="Verdana" fill="rgb(0, 0, 0)" id="details" > </text>
    <rect x="10.0" y="147.0" width="17.0" height="15.0" fill="rgb(212,158,147)" rx="2" ry="2" onmouseover="s(&quot;0x1 (2 samples, 1.44%)&quot;)" onmouseout="c()" />
    <rect x="27.0" y="147.0" width="8.5" height="15.0" fill="rgb(212,158,148)" rx="2" ry="2" onmouseover="s(&quot;0x100 (1 samples, 0.72%)&quot;)" onmouseout="c()" />
    <rect x="35.5" y="147.0" width="8.5" height="15.0" fill="rgb(212,158,148)" rx="2" ry="2" onmouseover="s(&quot;0x1000 (1 samples, 0.72%)&quot;)" onmouseout="c()" />
    <rect x="44.0" y="147.0" width="8.5" height="15.0" fill="rgb(212,158,148)" rx="2" ry="2" onmouseover="s(&quot;0x10c (1 samples, 0.72%)&quot;)" onmouseout="c()" />
    <rect x="52.4" y="147.0" width="8.5" height="15.0" fill="rgb(212,158,148)" rx="2" ry="2" onmouseover="s(&quot;0x10d6 (1 samples, 0.72%)&quot;)" onmouseout="c()" />
    <rect x="60.9" y="147.0" width="8.5" height="15.0" fill="rgb(212,158,148)" rx="2" ry="2" onmouseover="s(&quot;0x15c8 (1 samples, 0.72%)&quot;)" onmouseout="c()" />
    <rect x="69.4" y="147.0" width="8.5" height="15.0" fill="rgb(212,158,148)" rx="2" ry="2" onmouseover="s(&quot;0x1678 (1 samples, 0.72%)&quot;)" onmouseout="c()" />
    <rect x="77.9" y="147.0" width="8.5" height="15.0" fill="rgb(212,158,148)" rx="2" ry="2" onmouseover="s(&quot;0x1b9 (1 samples, 0.72%)&quot;)" onmouseout="c()" />
    <rect x="86.4" y="147.0" width="8.5" height="15.0" fill="rgb(212,158,148)" rx="2" ry="2" onmouseover="s(&quot;0x1d60 (1 samples, 0.72%)&quot;)" onmouseout="c()" />
    <rect x="111.9" y="67.0" width="8.5" height="15.0" fill="rgb(255,255,0)" rx="2" ry="2" onmouseover="s(&quot;0x10d765d03 (1 samples, 0.72%)&quot;)" onmouseout="c()" />
    <rect x="111.9" y="83.0" width="8.5" height="15.0" fill="rgb(247,205,0)" rx="2" ry="2" onmouseover="s(&quot;0x10d756446 (1 samples, 0.72%)&quot;)" onmouseout="c()" />
    <rect x="111.9" y="99.0" width="8.5" height="15.0" fill="rgb(238,159,0)" rx="2" ry="2" onmouseover="s(&quot;0x10d7580d3 (1 samples, 0.72%)&quot;)" onmouseout="c()" />
    <rect x="111.9" y="115.0" width="8.5" height="15.0" fill="rgb(230,115,0)" rx="2" ry="2" onmouseover="s(&quot;0x10d753249 (1 samples, 0.72%)&quot;)" onmouseout="c()" />
    <rect x="111.9" y="131.0" width="8.5" height="15.0" fill="rgb(221,74,0)" rx="2" ry="2" onmouseover="s(&quot;0x10d753036 (1 samples, 0.72%)&quot;)" onmouseout="c()" />
    <rect x="94.9" y="147.0" width="25.5" height="15.0" fill="rgb(212,157,146)" rx="2" ry="2" onmouseover="s(&quot;0x2 (3 samples, 2.16%)&quot;)" onmouseout="c()" />
    <rect x="120.4" y="147.0" width="8.5" height="15.0" fill="rgb(212,158,148)" rx="2" ry="2" onmouseover="s(&quot;0x228 (1 samples, 0.72%)&quot;)" onmouseout="c()" />
    <rect x="128.8" y="147.0" width="8.5" height="15.0" fill="rgb(212,158,148)" rx="2" ry="2" onmouseover="s(&quot;0x22dabd0 (1 samples, 0.72%)&quot;)" onmouseout="c()" />
    <rect x="137.3" y="147.0" width="8.5" height="15.0" fill="rgb(212,158,148)" rx="2" ry="2" onmouseover="s(&quot;0x2a (1 samples, 0.72%)&quot;)" onmouseout="c()" />
    <rect x="145.8" y="147.0" width="8.5" height="15.0" fill="rgb(212,158,148)" rx="2" ry="2" onmouseover="s(&quot;0x2a84 (1 samples, 0.72%)&quot;)" onmouseout="c()" />
    <rect x="154.3" y="147.0" width="8.5" height="15.0" fill="rgb(212,158,148)" rx="2" ry="2" onmouseover="s(&quot;0x3000001 (1 samples, 0.72%)&quot;)" onmouseout="c()" />
    <rect x="162.8" y="147.0" width="8.5" height="15.0" fill="rgb(212,158,148)" rx="2" ry="2" onmouseover="s(&quot;0x31 (1 samples, 0.72%)&quot;)" onmouseout="c()" />
    <rect x="171.3" y="147.0" width="25.5" height="15.0" fill="rgb(212,157,146)" rx="2" ry="2" onmouseover="s(&quot;0x36bc000 (3 samples, 2.16%)&quot;)" onmouseout="c()" />
    <rect x="196.8" y="147.0" width="17.0" height="15.0" fill="rgb(212,158,147)" rx="2" ry="2" onmouseover="s(&quot;0x3801600 (2 samples, 1.44%)&quot;)" onmouseout="c()" />
    <rect x="213.7" y="147.0" width="8.5" height="15.0" fill="rgb(212,158,148)" rx="2" ry="2" onmouseover="s(&quot;0x3807c18 (1 samples, 0.72%)&quot;)" onmouseout="c()" />
    <rect x="222.2" y="147.0" width="8.5" height="15.0" fill="rgb(212,158,148)" rx="2" ry="2" onmouseover="s(&quot;0x3808c50 (1 samples, 0.72%)&quot;)" onmouseout="c()" />
    <rect x="230.7" y="147.0" width="8.5" height="15.0" fill="rgb(212,158,148)" rx="2" ry="2" onmouseover="s(&quot;0x380c9d8 (1 samples, 0.72%)&quot;)" onmouseout="c()" />
    <rect x="239.2" y="147.0" width="8.5" height="15.0" fill="rgb(212,158,148)" rx="2" ry="2" onmouseover="s(&quot;0x3820e20 (1 samples, 0.72%)&quot;)" onmouseout="c()" />
    <rect x="247.7" y="147.0" width="8.5" height="15.0" fill="rgb(212,158,148)" rx="2" ry="2" onmouseover="s(&quot;0x3829310 (1 samples, 0.72%)&quot;)" onmouseout="c()" />
    <rect x="256.2" y="147.0" width="8.5" height="15.0" fill="rgb(212,158,148)" rx="2" ry="2" onmouseover="s(&quot;0x3859320 (1 samples, 0.72%)&quot;)" onmouseout="c()" />
    <rect x="264.7" y="147.0" width="8.5" height="15.0" fill="rgb(212,158,148)" rx="2" ry="2" onmouseover="s(&quot;0x386fd30 (1 samples, 0.72%)&quot;)" onmouseout="c()" />
    <rect x="273.2" y="147.0" width="8.5" height="15.0" fill="rgb(212,158,148)" rx="2" ry="2" onmouseover="s(&quot;0x38723e0 (1 samples, 0.72%)&quot;)" onmouseout="c()" />
    <rect x="281.7" y="147.0" width="8.5" height="15.0" fill="rgb(212,158,148)" rx="2" ry="2" onmouseover="s(&quot;0x3874530 (1 samples, 0.72%)&quot;)" onmouseout="c()" />
    <rect x="290.1" y="147.0" width="8.5" height="15.0" fill="rgb(212,158,148)" rx="2" ry="2" onmouseover="s(&quot;0x38755d0 (1 samples, 0.72%)&quot;)" onmouseout="c()" />
    <rect x="298.6" y="147.0" width="8.5" height="15.0" fill="rgb(212,158,148)" rx="2" ry="2" onmouseover="s(&quot;0x387a2d8 (1 samples, 0.72%)&quot;)" onmouseout="c()" />
    <rect x="307.1" y="147.0" width="8.5" height="15.0" fill="rgb(212,158,148)" rx="2" ry="2" onmouseover="s(&quot;0x3880ce0 (1 samples, 0.72%)&quot;)" onmouseout="c()" />
    <rect x="315.6" y="147.0" width="8.5" height="15.0" fill="rgb(212,158,148)" rx="2" ry="2" onmouseover="s(&quot;0x3888328 (1 samples, 0.72%)&quot;)" onmouseout="c()" />
    <rect x="324.1" y="147.0" width="8.5" height="15.0" fill="rgb(212,158,148)" rx="2" ry="2" onmouseover="s(&quot;0x3b1a740 (1 samples, 0.72%)&quot;)" onmouseout="c()" />
    <rect x="332.6" y="147.0" width="8.5" height="15.0" fill="rgb(212,158,148)" rx="2" ry="2" onmouseover="s(&quot;0x400 (1 samples, 0.72%)&quot;)" onmouseout="c()" />
    <rect x="341.1" y="147.0" width="8.5" height="15.0" fill="rgb(212,158,148)" rx="2" ry="2" onmouseover="s(&quot;0x4006da0 (1 samples, 0.72%)&quot;)" onmouseout="c()" />
    <rect x="349.6" y="147.0" width="8.5" height="15.0" fill="rgb(212,158,148)" rx="2" ry="2" onmouseover="s(&quot;0x4021000 (1 samples, 0.72%)&quot;)" onmouseout="c()" />
    <rect x="358.1" y="147.0" width="8.5" height="15.0" fill="rgb(212,158,148)" rx="2" ry="2" onmouseover="s(&quot;0x40c1e78 (1 samples, 0.72%)&quot;)" onmouseout="c()" />
    <rect x="366.5" y="147.0" width="8.5" height="15.0" fill="rgb(212,158,148)" rx="2" ry="2" onmouseover="s(&quot;0x41 (1 samples, 0.72%)&quot;)" onmouseout="c()" />
    <rect x="375.0" y="147.0" width="8.5" height="15.0" fill="rgb(212,158,148)" rx="2" ry="2" onmouseover="s(&quot;0x4100320 (1 samples, 0.72%)&quot;)" onmouseout="c()" />
    <rect x="383.5" y="147.0" width="8.5" height="15.0" fill="rgb(212,158,148)" rx="2" ry="2" onmouseover="s(&quot;0x41046b0 (1 samples, 0.72%)&quot;)" onmouseout="c()" />
    <rect x="392.0" y="147.0" width="8.5" height="15.0" fill="rgb(212,158,148)" rx="2" ry="2" onmouseover="s(&quot;0x41188b0 (1 samples, 0.72%)&quot;)" onmouseout="c()" />
    <rect x="400.5" y="147.0" width="8.5" height="15.0" fill="rgb(212,158,148)" rx="2" ry="2" onmouseover="s(&quot;0x412 (1 samples, 0.72%)&quot;)" onmouseout="c()" />
    <rect x="409.0" y="147.0" width="8.5" height="15.0" fill="rgb(212,158,148)" rx="2" ry="2" onmouseover="s(&quot;0x42a4a00 (1 samples, 0.72%)&quot;)" onmouseout="c()" />
    <rect x="417.5" y="147.0" width="8.5" height="15.0" fill="rgb(212,158,148)" rx="2" ry="2" onmouseover="s(&quot;0x42f4088 (1 samples, 0.72%)&quot;)" onmouseout="c()" />
    <rect x="426.0" y="147.0" width="8.5" height="15.0" fill="rgb(212,158,148)" rx="2" ry="2" onmouseover="s(&quot;0x43e6f00 (1 samples, 0.72%)&quot;)" onmouseout="c()" />
    <rect x="434.5" y="147.0" width="8.5" height="15.0" fill="rgb(212,158,148)" rx="2" ry="2" onmouseover="s(&quot;0x45075b8 (1 samples, 0.72%)&quot;)" onmouseout="c()" />
    <rect x="442.9" y="147.0" width="8.5" height="15.0" fill="rgb(212,158,148)" rx="2" ry="2" onmouseover="s(&quot;0x45141f0 (1 samples, 0.72%)&quot;)" onmouseout="c()" />
    <rect x="451.4" y="147.0" width="8.5" height="15.0" fill="rgb(212,158,148)" rx="2" ry="2" onmouseover="s(&quot;0x45e11d0 (1 samples, 0.72%)&quot;)" onmouseout="c()" />
    <rect x="459.9" y="147.0" width="8.5" height="15.0" fill="rgb(212,158,148)" rx="2" ry="2" onmouseover="s(&quot;0x4623ce8 (1 samples, 0.72%)&quot;)" onmouseout="c()" />
    <rect x="468.4" y="147.0" width="8.5" height="15.0" fill="rgb(212,158,148)" rx="2" ry="2" onmouseover="s(&quot;0x470 (1 samples, 0.72%)&quot;)" onmouseout="c()" />
    <rect x="476.9" y="147.0" width="8.5" height="15.0" fill="rgb(212,158,148)" rx="2" ry="2" onmouseover="s(&quot;0x4800c00 (1 samples, 0.72%)&quot;)" onmouseout="c()" />
    <rect x="485.4" y="147.0" width="8.5" height="15.0" fill="rgb(212,158,148)" rx="2" ry="2" onmouseover="s(&quot;0x4812800 (1 samples, 0.72%)&quot;)" onmouseout="c()" />
    <rect x="493.9" y="147.0" width="8.5" height="15.0" fill="rgb(212,158,148)" rx="2" ry="2" onmouseover="s(&quot;0x484dc00 (1 samples, 0.72%)&quot;)" onmouseout="c()" />
    <rect x="502.4" y="147.0" width="8.5" height="15.0" fill="rgb(212,158,148)" rx="2" ry="2" onmouseover="s(&quot;0x4868dc0 (1 samples, 0.72%)&quot;)" onmouseout="c()" />
    <rect x="510.9" y="147.0" width="8.5" height="15.0" fill="rgb(212,158,148)" rx="2" ry="2" onmouseover="s(&quot;0x486d608 (1 samples, 0.72%)&quot;)" onmouseout="c()" />
    <rect x="519.4" y="147.0" width="8.5" height="15.0" fill="rgb(212,158,148)" rx="2" ry="2" onmouseover="s(&quot;0x4896aa8 (1 samples, 0.72%)&quot;)" onmouseout="c()" />
    <rect x="527.8" y="147.0" width="8.5" height="15.0" fill="rgb(212,158,148)" rx="2" ry="2" onmouseover="s(&quot;0x4c01bb0 (1 samples, 0.72%)&quot;)" onmouseout="c()" />
    <rect x="536.3" y="147.0" width="8.5" height="15.0" fill="rgb(212,158,148)" rx="2" ry="2" onmouseover="s(&quot;0x4e4 (1 samples, 0.72%)&quot;)" onmouseout="c()" />
    <rect x="544.8" y="147.0" width="8.5" height="15.0" fill="rgb(212,158,148)" rx="2" ry="2" onmouseover="s(&quot;0x4f1 (1 samples, 0.72%)&quot;)" onmouseout="c()" />
    <rect x="553.3" y="147.0" width="8.5" height="15.0" fill="rgb(212,158,148)" rx="2" ry="2" onmouseover="s(&quot;0x5001c00 (1 samples, 0.72%)&quot;)" onmouseout="c()" />
    <rect x="561.8" y="147.0" width="8.5" height="15.0" fill="rgb(212,158,148)" rx="2" ry="2" onmouseover="s(&quot;0x5003000 (1 samples, 0.72%)&quot;)" onmouseout="c()" />
    <rect x="570.3" y="147.0" width="8.5" height="15.0" fill="rgb(212,158,148)" rx="2" ry="2" onmouseover="s(&quot;0x5022118 (1 samples, 0.72%)&quot;)" onmouseout="c()" />
    <rect x="578.8" y="147.0" width="8.5" height="15.0" fill="rgb(212,158,148)" rx="2" ry="2" onmouseover="s(&quot;0x5024fd0 (1 samples, 0.72%)&quot;)" onmouseout="c()" />
    <rect x="587.3" y="147.0" width="8.5" height="15.0" fill="rgb(212,158,148)" rx="2" ry="2" onmouseover="s(&quot;0x505f6c8 (1 samples, 0.72%)&quot;)" onmouseout="c()" />
    <rect x="595.8" y="147.0" width="8.5" height="15.0" fill="rgb(212,158,148)" rx="2" ry="2" onmouseover="s(&quot;0x5078140 (1 samples, 0.72%)&quot;)" onmouseout="c()" />
    <rect x="604.2" y="147.0" width="8.5" height="15.0" fill="rgb(212,158,148)" rx="2" ry="2" onmouseover="s(&quot;0x56 (1 samples, 0.72%)&quot;)" onmouseout="c()" />
    <rect x="612.7" y="147.0" width="8.5" height="15.0" fill="rgb(212,158,148)" rx="2" ry="2" onmouseover="s(&quot;0x5802000 (1 samples, 0.72%)&quot;)" onmouseout="c()" />
    <rect x="621.2" y="147.0" width="8.5" height="15.0" fill="rgb(212,158,148)" rx="2" ry="2" onmouseover="s(&quot;0x58105d8 (1 samples, 0.72%)&quot;)" onmouseout="c()" />
    <rect x="629.7" y="147.0" width="8.5" height="15.0" fill="rgb(212,158,148)" rx="2" ry="2" onmouseover="s(&quot;0x58f (1 samples, 0.72%)&quot;)" onmouseout="c()" />
    <rect x="638.2" y="147.0" width="8.5" height="15.0" fill="rgb(212,158,148)" rx="2" ry="2" onmouseover="s(&quot;0x5912bf8 (1 samples, 0.72%)&quot;)" onmouseout="c()" />
    <rect x="646.7" y="147.0" width="34.0" height="15.0" fill="rgb(212,156,144)" rx="2" ry="2" onmouseover="s(&quot;0x5bb698 (4 samples, 2.88%)&quot;)" onmouseout="c()" />
    <rect x="680.6" y="147.0" width="8.5" height="15.0" fill="rgb(212,158,148)" rx="2" ry="2" onmouseover="s(&quot;0x5fbfb557 (1 samples, 0.72%)&quot;)" onmouseout="c()" />
    <rect x="689.1" y="147.0" width="8.5" height="15.0" fill="rgb(212,158,148)" rx="2" ry="2" onmouseover="s(&quot;0x5fbfbe90 (1 samples, 0.72%)&quot;)" onmouseout="c()" />
    <rect x="697.6" y="147.0" width="8.5" height="15.0" fill="rgb(212,158,148)" rx="2" ry="2" onmouseover="s(&quot;0x5fbfcb97 (1 samples, 0.72%)&quot;)" onmouseout="c()" />
    <rect x="706.1" y="147.0" width="8.5" height="15.0" fill="rgb(212,158,148)" rx="2" ry="2" onmouseover="s(&quot;0x5fbfd0c0 (1 samples, 0.72%)&quot;)" onmouseout="c()" />
    <rect x="714.6" y="147.0" width="8.5" height="15.0" fill="rgb(212,158,148)" rx="2" ry="2" onmouseover="s(&quot;0x5fbfd3f8 (1 samples, 0.72%)&quot;)" onmouseout="c()" />
    <rect x="723.1" y="147.0" width="8.5" height="15.0" fill="rgb(212,158,148)" rx="2" ry="2" onmouseover="s(&quot;0x5fbfd930 (1 samples, 0.72%)&quot;)" onmouseout="c()" />
    <rect x="731.6" y="147.0" width="8.5" height="15.0" fill="rgb(212,158,148)" rx="2" ry="2" onmouseover="s(&quot;0x5fbfd938 (1 samples, 0.72%)&quot;)" onmouseout="c()" />
    <rect x="740.1" y="147.0" width="8.5" height="15.0" fill="rgb(212,158,148)" rx="2" ry="2" onmouseover="s(&quot;0x5fbfdc50 (1 samples, 0.72%)&quot;)" onmouseout="c()" />
    <rect x="748.6" y="147.0" width="34.0" height="15.0" fill="rgb(212,156,144)" rx="2" ry="2" onmouseover="s(&quot;0x5fbfdc70 (4 samples, 2.88%)&quot;)" onmouseout="c()" />
    <rect x="782.5" y="147.0" width="8.5" height="15.0" fill="rgb(212,158,148)" rx="2" ry="2" onmouseover="s(&quot;0x5fbfdca8 (1 samples, 0.72%)&quot;)" onmouseout="c()" />
    <rect x="791.0" y="147.0" width="8.5" height="15.0" fill="rgb(212,158,148)" rx="2" ry="2" onmouseover="s(&quot;0x5fbfdcb8 (1 samples, 0.72%)&quot;)" onmouseout="c()" />
    <rect x="799.5" y="147.0" width="8.5" height="15.0" fill="rgb(212,158,148)" rx="2" ry="2" onmouseover="s(&quot;0x5fbfdcd0 (1 samples, 0.72%)&quot;)" onmouseout="c()" />
    <rect x="808.0" y="147.0" width="8.5" height="15.0" fill="rgb(212,158,148)" rx="2" ry="2" onmouseover="s(&quot;0x5fbfdd10 (1 samples, 0.72%)&quot;)" onmouseout="c()" />
    <rect x="816.5" y="147.0" width="8.5" height="15.0" fill="rgb(212,158,148)" rx="2" ry="2" onmouseover="s(&quot;0x5fbfdd30 (1 samples, 0.72%)&quot;)" onmouseout="c()" />
    <rect x="825.0" y="147.0" width="8.5" height="15.0" fill="rgb(212,158,148)" rx="2" ry="2" onmouseover="s(&quot;0x5fbfdd58 (1 samples, 0.72%)&quot;)" onmouseout="c()" />
    <rect x="833.5" y="147.0" width="17.0" height="15.0" fill="rgb(212,158,147)" rx="2" ry="2" onmouseover="s(&quot;0x5fbfdd78 (2 samples, 1.44%)&quot;)" onmouseout="c()" />
    <rect x="850.4" y="147.0" width="8.5" height="15.0" fill="rgb(212,158,148)" rx="2" ry="2" onmouseover="s(&quot;0x5fbfdd90 (1 samples, 0.72%)&quot;)" onmouseout="c()" />
    <rect x="858.9" y="147.0" width="8.5" height="15.0" fill="rgb(212,158,148)" rx="2" ry="2" onmouseover="s(&quot;0x5fbfddb8 (1 samples, 0.72%)&quot;)" onmouseout="c()" />
    <rect x="867.4" y="147.0" width="8.5" height="15.0" fill="rgb(212,158,148)" rx="2" ry="2" onmouseover="s(&quot;0x5fbfdee8 (1 samples, 0.72%)&quot;)" onmouseout="c()" />
    <rect x="875.9" y="147.0" width="8.5" height="15.0" fill="rgb(212,158,148)" rx="2" ry="2" onmouseover="s(&quot;0x5fbfdf08 (1 samples, 0.72%)&quot;)" onmouseout="c()" />
    <rect x="884.4" y="147.0" width="34.0" height="15.0" fill="rgb(212,156,144)" rx="2" ry="2" onmouseover="s(&quot;0x5fbfdf38 (4 samples, 2.88%)&quot;)" onmouseout="c()" />
    <rect x="918.3" y="147.0" width="8.5" height="15.0" fill="rgb(212,158,148)" rx="2" ry="2" onmouseover="s(&quot;0x5fbfdf58 (1 samples, 0.72%)&quot;)" onmouseout="c()" />
    <rect x="926.8" y="147.0" width="8.5" height="15.0" fill="rgb(212,158,148)" rx="2" ry="2" onmouseover="s(&quot;0x5fbfe340 (1 samples, 0.72%)&quot;)" onmouseout="c()" />
    <rect x="935.3" y="147.0" width="8.5" height="15.0" fill="rgb(212,158,148)" rx="2" ry="2" onmouseover="s(&quot;0x5fbfe5c0 (1 samples, 0.72%)&quot;)" onmouseout="c()" />
    <rect x="943.8" y="147.0" width="8.5" height="15.0" fill="rgb(212,158,148)" rx="2" ry="2" onmouseover="s(&quot;0x6 (1 samples, 0.72%)&quot;)" onmouseout="c()" />
    <rect x="952.3" y="147.0" width="8.5" height="15.0" fill="rgb(212,158,148)" rx="2" ry="2" onmouseover="s(&quot;0x60283a8 (1 samples, 0.72%)&quot;)" onmouseout="c()" />
    <rect x="960.8" y="147.0" width="8.5" height="15.0" fill="rgb(212,158,148)" rx="2" ry="2" onmouseover="s(&quot;0x6278328 (1 samples, 0.72%)&quot;)" onmouseout="c()" />
    <rect x="969.3" y="147.0" width="8.5" height="15.0" fill="rgb(212,158,148)" rx="2" ry="2" onmouseover="s(&quot;0x6297698 (1 samples, 0.72%)&quot;)" onmouseout="c()" />
    <rect x="977.8" y="147.0" width="8.5" height="15.0" fill="rgb(212,158,148)" rx="2" ry="2" onmouseover="s(&quot;0x62c9e48 (1 samples, 0.72%)&quot;)" onmouseout="c()" />
    <rect x="986.3" y="147.0" width="8.5" height="15.0" fill="rgb(212,158,148)" rx="2" ry="2" onmouseover="s(&quot;0x65 (1 samples, 0.72%)&quot;)" onmouseout="c()" />
    <rect x="994.7" y="147.0" width="8.5" height="15.0" fill="rgb(212,158,148)" rx="2" ry="2" onmouseover="s(&quot;0x68c9fc8 (1 samples, 0.72%)&quot;)" onmouseout="c()" />
    <rect x="1003.2" y="147.0" width="8.5" height="15.0" fill="rgb(212,158,148)" rx="2" ry="2" onmouseover="s(&quot;0x7f4 (1 samples, 0.72%)&quot;)" onmouseout="c()" />
    <rect x="1011.7" y="147.0" width="8.5" height="15.0" fill="rgb(212,158,148)" rx="2" ry="2" onmouseover="s(&quot;0x8000 (1 samples, 0.72%)&quot;)" onmouseout="c()" />
    <rect x="1020.2" y="147.0" width="8.5" height="15.0" fill="rgb(212,158,148)" rx="2" ry="2" onmouseover="s(&quot;0x82 (1 samples, 0.72%)&quot;)" onmouseout="c()" />
    <rect x="1028.7" y="147.0" width="8.5" height="15.0" fill="rgb(212,158,148)" rx="2" ry="2" onmouseover="s(&quot;0x8e1b8d (1 samples, 0.72%)&quot;)" onmouseout="c()" />
    <rect x="1037.2" y="147.0" width="8.5" height="15.0" fill="rgb(212,158,148)" rx="2" ry="2" onmouseover="s(&quot;0x98 (1 samples, 0.72%)&quot;)" onmouseout="c()" />
    <rect x="1045.7" y="147.0" width="8.5" height="15.0" fill="rgb(212,158,148)" rx="2" ry="2" onmouseover="s(&quot;0x994 (1 samples, 0.72%)&quot;)" onmouseout="c()" />
    <rect x="1054.2" y="147.0" width="8.5" height="15.0" fill="rgb(212,158,148)" rx="2" ry="2" onmouseover="s(&quot;0x9f06e8ae (1 samples, 0.72%)&quot;)" onmouseout="c()" />
    <rect x="1062.7" y="147.0" width="34.0" height="15.0" fill="rgb(212,156,144)" rx="2" ry="2" onmouseover="s(&quot;0xa90 (4 samples, 2.88%)&quot;)" onmouseout="c()" />
    <rect x="1096.6" y="147.0" width="8.5" height="15.0" fill="rgb(212,158,148)" rx="2" ry="2" onmouseover="s(&quot;0xaa928981 (1 samples, 0.72%)&quot;)" onmouseout="c()" />
    <rect x="1105.1" y="147.0" width="8.5" height="15.0" fill="rgb(212,158,148)" rx="2" ry="2" onmouseover="s(&quot;0xb0 (1 samples, 0.72%)&quot;)" onmouseout="c()" />
    <rect x="1113.6" y="147.0" width="8.5" height="15.0" fill="rgb(212,158,148)" rx="2" ry="2" onmouseover="s(&quot;0xb1 (1 samples, 0.72%)&quot;)" onmouseout="c()" />
    <rect x="1122.1" y="147.0" width="8.5" height="15.0" fill="rgb(212,158,148)" rx="2" ry="2" onmouseover="s(&quot;0xb4 (1 samples, 0.72%)&quot;)" onmouseout="c()" />
    <rect x="1130.6" y="147.0" width="8.5" height="15.0" fill="rgb(212,158,148)" rx="2" ry="2" onmouseover="s(&quot;0xb4c (1 samples, 0.72%)&quot;)" onmouseout="c()" />
    <rect x="1139.1" y="147.0" width="8.5" height="15.0" fill="rgb(212,158,148)" rx="2" ry="2" onmouseover="s(&quot;0xc4 (1 samples, 0.72%)&quot;)" onmouseout="c()" />
    <rect x="1147.6" y="147.0" width="8.5" height="15.0" fill="rgb(212,158,148)" rx="2" ry="2" onmouseover="s(&quot;0xcb7 (1 samples, 0.72%)&quot;)" onmouseout="c()" />
    <rect x="1156.0" y="147.0" width="8.5" height="15.0" fill="rgb(212,158,148)" rx="2" ry="2" onmouseover="s(&quot;0xd3700000 (1 samples, 0.72%)&quot;)" onmouseout="c()" />
    <rect x="1164.5" y="147.0" width="8.5" height="15.0" fill="rgb(212,158,148)" rx="2" ry="2" onmouseover="s(&quot;0xd692661 (1 samples, 0.72%)&quot;)" onmouseout="c()" />
    <rect x="1173.0" y="147.0" width="8.5" height="15.0" fill="rgb(212,158,148)" rx="2" ry="2" onmouseover="s(&quot;0xda185e81 (1 samples, 0.72%)&quot;)" onmouseout="c()" />
    <rect x="1181.5" y="147.0" width="8.5" height="15.0" fill="rgb(212,158,148)" rx="2" ry="2" onmouseover="s(&quot;0xf8 (1 samples, 0.72%)&quot;)" onmouseout="c()" />
    <rect x="10.0" y="163.0" width="1180.0" height="15.0" fill="rgb(204,0,0)" rx="2" ry="2" onmouseover="s(&quot;all samples (139 samples, 100%)&quot;)" onmouseout="c()" />
    <text text-anchor="left" x="13" y="173.5" font-size="12" font-family="Verdana" fill="rgb(0, 0, 0)" onmouseover="s(&quot;all samples (139 samples, 100%)&quot;)" onmouseout="c()" ></text>
</svg>
